<svg width="34" height="30" viewBox="0 0 34 30" fill="none" xmlns="http://www.w3.org/2000/svg">
<path d="M23.0897 0C23.5248 0.945852 23.7516 1.97599 23.7545 3.01917C23.7545 4.9304 23.0037 6.76337 21.6672 8.11482C20.3308 9.46627 18.5181 10.2256 16.6283 10.2256C15.6924 10.2256 14.7657 10.0392 13.9011 9.67705C13.0366 9.3149 12.2509 8.7841 11.5891 8.11492C10.9274 7.44574 10.4025 6.65131 10.0443 5.77699C9.68622 4.90262 9.50192 3.96551 9.50192 3.01917C9.50447 1.9838 9.72762 0.961174 10.1562 0.0208598C7.14822 1.21427 4.58104 3.21294 2.77494 5.76755C0.968781 8.32214 0.00366629 11.3196 4.16621e-09 14.3858C-4.88795e-05 16.4365 0.430081 18.4667 1.2657 20.361C2.10137 22.2552 3.32621 23.9766 4.87024 25.4264C6.41433 26.8767 8.24743 28.0266 10.2649 28.8111C12.2823 29.5961 14.4446 30 16.6283 30C18.8119 30 20.974 29.5961 22.9914 28.8111C25.0089 28.0266 26.842 26.8763 28.3862 25.4264C29.93 23.9766 31.155 22.2552 31.9904 20.361C32.8264 18.4667 33.2566 16.4361 33.2566 14.3858C33.256 11.3148 32.2916 8.31216 30.4834 5.75336C28.6746 3.19455 26.1028 1.19331 23.0897 0Z" fill="white"/>
</svg>
