<svg width="26" height="30" viewBox="0 0 26 30" fill="none" xmlns="http://www.w3.org/2000/svg">
<path fill-rule="evenodd" clip-rule="evenodd" d="M14.4105 14.9344C14.6115 14.8104 14.7822 14.5505 14.9198 14.2618C16.7302 15.0101 18.0023 16.7782 18.0023 18.8402C18.0023 21.5796 15.7571 23.8001 12.9874 23.8001C11.8506 23.8001 10.8019 23.4258 9.96083 22.7953C9.68494 22.6631 9.45779 22.5361 9.27201 22.4323C8.98387 22.2713 8.79493 22.1657 8.67663 22.1822C8.33083 22.2304 8.43114 22.5521 8.52236 22.8445C8.58448 23.043 8.64214 23.228 8.55278 23.3044C8.45914 23.3843 8.15635 23.0921 7.80239 22.7508C7.3205 22.2863 6.74404 21.7305 6.47222 21.8976C6.25732 22.0296 6.46609 22.3875 6.72141 22.8258L6.74033 22.8583C6.84824 23.0438 6.97322 23.2324 7.08743 23.4045C7.31938 23.7544 7.5061 24.0361 7.41264 24.084C7.29973 24.1416 6.51246 23.6044 5.84903 22.8583C5.59297 22.5705 5.34507 22.2583 5.11459 21.9684C4.61007 21.3335 4.18974 20.8048 3.95371 20.8674C3.67002 20.9428 3.88473 21.5348 4.20012 22.1046C4.34772 22.371 4.52126 22.6423 4.67145 22.8771C4.90507 23.2425 5.08252 23.5196 5.01818 23.5538C4.9314 23.5997 4.16768 22.8465 3.64887 21.8976C3.34072 21.3338 3.08206 20.7108 2.87254 20.2065C2.64541 19.6596 2.4763 19.2521 2.36486 19.211C1.97772 19.0685 1.97772 19.8668 2.13309 21.0188C2.1533 21.169 2.18353 21.3265 2.22061 21.487C3.7262 26.4131 8.35123 30 13.8233 30C20.5166 30 25.9426 24.6335 25.9426 18.0135C25.9426 11.7129 21.0274 6.54769 14.7824 6.06413C14.7901 5.76731 14.9436 5.17875 14.9436 5.17875C14.9436 5.17875 16.046 2.48119 16.1042 1.90481C16.1082 1.86656 16.1125 1.82513 16.1175 1.78069C16.1862 1.158 16.314 0 15.3288 0C14.8029 0 14.5581 0.395811 14.2783 0.84844C14.1709 1.02225 14.0582 1.20431 13.9224 1.37569C12.9451 2.61 11.3016 4.15125 10.3697 4.9725C8.4 6.708 6.46758 8.1345 5.34044 8.96644C4.82776 9.34481 4.48177 9.60019 4.37478 9.70575C3.56785 10.5011 0.674606 15.7785 0.674606 15.7785C0.674606 15.7785 -0.261003 17.4717 0.0714487 17.8149C0.404086 18.1584 1.20601 18.0797 1.20601 18.0797C1.20601 18.0797 11.98 15.5803 12.9445 15.383C13.2043 15.33 13.3875 15.2995 13.5283 15.276C13.9104 15.2121 13.979 15.2006 14.4105 14.9344ZM6.79299 11.7225C6.21468 12.2784 5.25551 13.6052 5.25551 13.6052C5.25551 13.6052 7.0381 13.7164 8.01988 12.7727C9.00149 11.829 8.77657 10.2206 8.77657 10.2206C8.77657 10.2206 7.3713 11.1666 6.79299 11.7225Z" fill="white"/>
</svg>
