<svg width="30" height="30" viewBox="0 0 30 30" fill="none" xmlns="http://www.w3.org/2000/svg">
<path fill-rule="evenodd" clip-rule="evenodd" d="M6.46748 23.8479L10.5708 22.6447L14.4125 29.7477C14.5945 30.0841 15.0722 30.0841 15.2542 29.7477L19.0959 22.6447L23.1992 23.8479C23.5635 23.9547 23.9005 23.612 23.793 23.2443L22.6073 19.192L29.4172 15.4256C29.7499 15.2416 29.7499 14.7584 29.4172 14.5744L22.545 10.7736L23.793 6.50855C23.9005 6.14074 23.5635 5.79814 23.1992 5.90494L18.9804 7.14195L15.2542 0.252302C15.0722 -0.0841006 14.5945 -0.0841006 14.4125 0.252302L10.6863 7.14195L6.46748 5.90494C6.10317 5.79814 5.76616 6.14074 5.87375 6.50855L7.12174 10.7736L0.249498 14.5744C-0.0831661 14.7584 -0.0831661 15.2416 0.249498 15.4256L7.05944 19.192L5.87375 23.2443C5.76616 23.612 6.10317 23.9547 6.46748 23.8479ZM10.215 15.4664L12.9545 16.9814L14.4526 19.7517C14.6346 20.088 15.1126 20.088 15.2946 19.7517L16.7927 16.9814L19.5322 15.4664C19.8648 15.2824 19.8648 14.799 19.5322 14.615L16.7927 13.1L15.2946 10.3298C15.1126 9.99317 14.6346 9.99317 14.4526 10.3298L12.9545 13.1L10.215 14.615C9.88215 14.799 9.88215 15.2824 10.215 15.4664Z" fill="white"/>
</svg>
