<svg width="28" height="30" viewBox="0 0 28 30" fill="none" xmlns="http://www.w3.org/2000/svg">
<path fill-rule="evenodd" clip-rule="evenodd" d="M4.12742 2.494C4.48659 1.0606 5.77076 0 7.29978 0C8.45164 0 9.46446 0.601798 10.0475 1.5114C10.1375 1.5038 10.2285 1.5 10.3204 1.5C10.5327 1.5 10.7401 1.5204 10.9413 1.5594C11.5388 0.907798 12.3928 0.5 13.3411 0.5C14.6883 0.5 15.8455 1.3236 16.3473 2.5H16.3615C16.5943 2.5 16.8214 2.5246 17.0403 2.5712C17.5642 2.2108 18.1971 2 18.8789 2C20.2934 2 21.4982 2.9076 21.9551 4.1784C22.2031 4.2644 22.4375 4.3796 22.6544 4.5202C23.1631 4.191 23.7678 4 24.4167 4C26.2238 4 27.6889 5.4816 27.6889 7.309V17.25V17.4112C27.6889 17.472 27.6873 17.5326 27.684 17.5928C27.4868 24.476 21.3661 30 13.8444 30C6.19836 30 0 24.2916 0 17.25C0 13.851 1.44417 10.7626 3.79832 8.477C3.79239 11.7908 3.84777 15.2164 4.1029 15.1576C4.78622 15.0002 4.25242 4.7366 4.12742 2.494Z" fill="white"/>
</svg>
