<svg width="23" height="30" viewBox="0 0 23 30" fill="none" xmlns="http://www.w3.org/2000/svg">
<path fill-rule="evenodd" clip-rule="evenodd" d="M16.7024 23.1676C17.0689 21.8123 16.3576 19.026 16.3576 19.026C16.3576 19.026 15.8415 21.2958 15.035 22.1348C14.3473 22.8505 13.5044 23.3468 12.2958 23.4772C13.2839 22.9919 13.9636 21.9796 13.9636 20.8098C13.9636 19.1677 12.6245 17.8364 10.9724 17.8364C9.32047 17.8364 7.9813 19.1677 7.9813 20.8098C7.9813 21.2584 8.08123 21.6836 8.26008 22.0649C7.2269 21.2326 7.0643 19.898 7.0643 19.898C7.0643 19.898 5.91057 24.7419 9.08976 27.0207C12.2687 29.2993 18.4964 27.3406 18.4964 27.3406C18.4964 27.3406 9.58421 33.6819 2.98031 26.7802C-2.70838 20.8351 1.49555 13.0079 1.49555 13.0079C1.49555 13.0079 1.31392 13.7341 1.31392 14.577C1.31392 15.4199 1.76591 16.0612 1.76591 16.0612C1.76591 16.0612 3.11389 13.1877 4.16307 12.0192C5.15598 10.9133 6.40062 10.0163 7.47564 9.24173C8.30313 8.64533 9.03028 8.12122 9.46446 7.63032C11.8563 4.92595 10.3897 0 10.3897 0C10.3897 0 13.0859 2.40344 13.8384 5.50777C14.1254 6.69086 13.9408 8.03718 13.7757 9.24112C13.5078 11.1955 13.2913 12.7748 15.2269 12.6723C18.3548 12.5068 15.6367 7.63032 15.6367 7.63032C15.6367 7.63032 22.7319 11.4013 22.2018 17.9969C21.6718 24.5923 14.4464 26.0917 14.4464 26.0917C14.4464 26.0917 16.3359 24.523 16.7024 23.1676Z" fill="white"/>
</svg>
