<svg width="35" height="30" viewBox="0 0 35 30" fill="none" xmlns="http://www.w3.org/2000/svg">
<path fill-rule="evenodd" clip-rule="evenodd" d="M12.0824 30C17.1532 30 21.4944 27.1818 23.2867 23.1865C23.3086 23.1378 16.0912 25.0622 16.3214 24.3819C16.4241 24.0782 20.8484 22.462 24.0718 20.5768C25.9244 19.4933 26.7775 17.1995 26.7775 17.1995C26.7775 17.1995 23.6564 18.7149 22.0784 19.0994C18.8986 19.8742 16.0996 19.7907 16.0996 19.71C16.0996 19.5354 20.7473 18.6524 27.2072 14.7159C30.2455 12.8643 31.071 9.67493 31.071 9.67493C31.071 9.67493 27.7304 11.6648 25.7109 12.3217C20.9218 13.8796 16.5515 14.3491 16.5515 14.1383C16.5515 13.6869 20.3975 12.6293 24.4752 10.6535C26.5955 9.62617 28.4315 8.28399 30.5594 6.79147C34.0412 4.34938 34.6154 0 34.6154 0C34.6154 0 31.1813 2.21485 29.5057 2.95038C22.5907 5.98544 16.4848 7.57745 12.0824 7.92215C5.43678 8.44246 0 13.0792 0 19.0994C0 25.1197 5.40946 30 12.0824 30Z" fill="white"/>
</svg>
