<svg width="30" height="30" viewBox="0 0 30 30" fill="none" xmlns="http://www.w3.org/2000/svg">
<path fill-rule="evenodd" clip-rule="evenodd" d="M21.3779 29.896C18.7021 30.0347 15.6385 30.0347 14.5972 29.896C6.47621 28.8155 0 22.8112 0 14.6952C0 6.57919 6.64108 0 14.8333 0C23.0255 0 29.6666 6.57919 29.6666 14.6952C29.6666 18.4698 28.23 21.9122 25.8691 24.5148C25.2278 25.2216 26.1077 25.7172 27.0012 26.2208C27.8779 26.7149 28.7681 27.2166 28.2506 27.9323C27.6806 28.7211 24.5904 29.7297 21.3779 29.896ZM12.7473 12.8584C12.7473 14.1265 11.7096 15.1545 10.4297 15.1545C9.1496 15.1545 8.11191 14.1265 8.11191 12.8584C8.11191 12.0079 8.57873 11.2654 9.27229 10.8685C9.31213 11.9743 10.2112 12.8584 11.3144 12.8584H12.7473ZM16.4557 12.8584C16.4557 14.1265 17.4933 15.1545 18.7734 15.1545C20.0534 15.1545 21.091 14.1265 21.091 12.8584C21.091 12.0079 20.6245 11.2654 19.9309 10.8685C19.891 11.9743 18.992 12.8584 17.8887 12.8584H16.4557Z" fill="white"/>
</svg>
