<svg width="28" height="30" viewBox="0 0 28 30" fill="none" xmlns="http://www.w3.org/2000/svg">
<path fill-rule="evenodd" clip-rule="evenodd" d="M4.40493 26.1703C4.29927 26.0696 4.19474 25.9672 4.09136 25.8626C-1.36379 20.3462 -1.36379 11.4021 4.09136 5.88569C9.5465 0.369021 26.9289 0 26.9289 0C26.9289 0 29.3016 20.3462 23.8465 25.8626C19.0015 30.762 11.4832 31.3101 6.04013 27.5069L10.4258 22.0641L17.437 20.5336L11.7139 19.955L15.351 16.21L19.4911 15.2929L16.2173 14.3123L19.4911 8.34031L14.8345 13.622L13.0362 11.0562L13.6693 15.2929L10.4258 18.9903L8.92232 14.3123V20.5336L4.40493 26.1703Z" fill="white"/>
</svg>
