<svg width="41" height="30" viewBox="0 0 41 30" fill="none" xmlns="http://www.w3.org/2000/svg">
<path fill-rule="evenodd" clip-rule="evenodd" d="M9.19592 29.8832C9.02984 29.8832 8.91365 29.7188 8.96902 29.5623L19.3018 0.365454C19.3796 0.146456 19.5866 0 19.8189 0H30.3423C30.5755 0 30.7834 0.147542 30.8604 0.367906L40.8967 29.1539C41.021 29.5108 40.7562 29.8832 40.3787 29.8832H9.19592ZM0.549109 30C0.1662 30 -0.0988913 29.6176 0.0352908 29.259L7.50365 9.32101C7.58385 9.10691 7.78838 8.96482 8.01721 8.96482H13.7248C14.105 8.96482 14.3701 9.34255 14.2406 9.7001L7.01902 29.6384C6.94047 29.8555 6.7343 30 6.50329 30H0.549109Z" fill="white"/>
</svg>
