<svg width="35" height="30" viewBox="0 0 35 30" fill="none" xmlns="http://www.w3.org/2000/svg">
<path fill-rule="evenodd" clip-rule="evenodd" d="M26.3008 0.0388489L26.4103 9.55196L18.0196 13.5352L17.9161 4.55299L26.3008 0.0388489Z" fill="white"/>
<path fill-rule="evenodd" clip-rule="evenodd" d="M34.7118 15.0291L26.4056 19.7273L18.0947 15.0216L26.4014 10.7068L34.7118 15.0291Z" fill="white"/>
<path fill-rule="evenodd" clip-rule="evenodd" d="M16.6174 15.0291L8.31098 19.7273L0 15.0216L8.30678 10.7068L16.6174 15.0291Z" fill="white"/>
<path fill-rule="evenodd" clip-rule="evenodd" d="M8.21768 0L16.8388 4.22216L16.6187 13.4236L8.47848 9.43684L8.21768 0Z" fill="white"/>
<path fill-rule="evenodd" clip-rule="evenodd" d="M26.5353 29.9144L17.9142 25.6921L18.1346 16.4907L26.2745 20.4773L26.5353 29.9144Z" fill="white"/>
<path fill-rule="evenodd" clip-rule="evenodd" d="M8.51546 30L8.40598 20.4869L16.7966 16.5038L16.9 25.4859L8.51546 30Z" fill="white"/>
</svg>
