<svg width="30" height="30" viewBox="0 0 30 30" fill="none" xmlns="http://www.w3.org/2000/svg">
<path fill-rule="evenodd" clip-rule="evenodd" d="M25.0676 23.0536C28.097 20.6312 30 17.1313 30 13.2392C30 5.9274 23.2841 0 15 0C6.7158 0 0 5.9274 0 13.2392C0 16.991 1.768 20.378 4.6088 22.7872C4.4366 23.3816 4.3422 24.0282 4.3422 24.7042C4.3422 27.629 6.1094 30 8.2894 30C9.706 30 10.9484 28.999 11.6448 27.4954C12.3412 28.999 13.5834 30 15 30C16.2912 30 17.4379 29.1682 18.1579 27.8822C18.878 29.1682 20.0246 30 21.3158 30C23.4958 30 25.2633 27.629 25.2633 24.7042C25.2633 24.128 25.1946 23.5733 25.0676 23.0536ZM23.6841 13.5018C23.6841 17.214 19.7079 20.2234 14.8026 20.2234C9.89741 20.2234 5.921 17.214 5.921 13.5018C5.921 9.78961 9.89741 6.7804 14.8026 6.7804C19.7079 6.7804 23.6841 9.78961 23.6841 13.5018Z" fill="white"/>
</svg>
