<svg width="28" height="30" viewBox="0 0 28 30" fill="none" xmlns="http://www.w3.org/2000/svg">
<path fill-rule="evenodd" clip-rule="evenodd" d="M25.6625 24.9158C25.6625 24.9158 21.8794 27.9502 14.3509 26.6943C8.63915 25.7418 5.59271 19.4455 5.59271 16.0611C5.59271 8.03704 11.5316 6.21084 15.5467 6.21084C19.5618 6.21084 22.1811 10.1255 22.1811 13.1561C22.1811 16.1869 20.0374 18.838 16.7014 18.838C13.3656 18.838 12.3775 16.496 12.3775 14.3428C12.3775 12.1897 14.1196 11.4312 15.7083 11.4312C17.297 11.4312 17.8411 12.7876 17.8411 13.9532C17.8411 15.119 16.9365 15.5365 16.1821 15.5365C15.4278 15.5365 15.3529 15.156 15.0643 14.756C14.7756 14.3559 15.4328 12.842 14.3509 12.842C13.2691 12.842 13.0674 14.5824 13.0674 14.5824C13.0674 14.5824 13.462 17.9421 16.7014 17.8843C19.9411 17.8262 21.4782 15.3216 21.0315 12.842C20.585 10.3623 18.1782 7.72725 13.9549 8.25965C9.73117 8.79218 8.0067 13.0597 8.76677 17.6203C9.52697 22.1807 14.9904 24.8232 19.2862 23.8726C23.5818 22.9218 27.8603 19.8118 27.8603 11.9269C27.8603 4.0421 21.0315 -0.697388 12.8886 0.0837574C4.74594 0.864903 -0.308743 7.98382 0.0146472 16.5373C0.338278 25.0909 8.45458 29.7495 15.3178 29.9895C22.1811 30.2297 26.3884 26.2567 26.3884 26.2567C26.3884 26.2567 27.3346 25.4129 26.9636 24.754C26.5926 24.0952 25.6625 24.9158 25.6625 24.9158Z" fill="white"/>
</svg>
