<svg width="39" height="30" viewBox="0 0 39 30" fill="none" xmlns="http://www.w3.org/2000/svg">
<path fill-rule="evenodd" clip-rule="evenodd" d="M29.9872 14.3871C29.906 14.2778 29.8733 14.1409 29.8965 14.0073L32.2538 0.414746C32.2953 0.175134 32.5083 0 32.7542 0C32.9743 0 33.1717 0.141254 33.238 0.348626L38.5747 17.0583C38.6382 17.2569 38.5701 17.474 38.404 17.602L34.9808 20.2451C34.7567 20.4181 34.4321 20.3739 34.2635 20.1471L29.9872 14.3871ZM0 23.282C0 23.4978 0.140354 23.6891 0.347846 23.7563L8.21016 26.2983C8.35991 26.347 8.52403 26.3232 8.65388 26.2346L27.1259 13.6237C27.2409 13.5453 27.3176 13.4232 27.3384 13.2866L29.2443 0.641246C29.2896 0.339608 29.0533 0.0685808 28.745 0.0685808H12.851C12.7007 0.0685808 12.5584 0.134696 12.4625 0.249175L0.116039 14.9776C0.0411653 15.0672 0 15.1797 0 15.2961V23.282ZM11.9552 27.0678L20.9302 29.9752C21.0832 30.0248 21.2507 29.999 21.3816 29.9065L31.7596 22.5448C31.9811 22.3877 32.0363 22.0851 31.8842 21.861L28.3146 16.6081C28.1582 16.378 27.8421 16.318 27.6108 16.4744L11.9552 27.0678Z" fill="white"/>
</svg>
