<svg width="35" height="30" viewBox="0 0 35 30" fill="none" xmlns="http://www.w3.org/2000/svg">
<path fill-rule="evenodd" clip-rule="evenodd" d="M0.117893 15.4429C-0.0392609 15.1745 -0.0392583 14.8424 0.117665 14.574L8.39881 0.425302C8.55298 0.161999 8.83544 0 9.14074 0H25.5627C25.8695 0 26.153 0.163383 26.3068 0.428997L34.497 14.5775C34.6511 14.844 34.6511 15.1728 34.4967 15.4391L26.3068 29.5715C26.153 29.8366 25.8697 30 25.563 30H9.14028C8.8352 30 8.55298 29.8382 8.39859 29.5749L0.117893 15.4429ZM25.3846 15C25.3846 19.4607 21.7684 23.0769 17.3077 23.0769C12.8469 23.0769 9.23074 19.4607 9.23074 15C9.23074 10.5392 12.8469 6.92308 17.3077 6.92308C21.7684 6.92308 25.3846 10.5392 25.3846 15Z" fill="white"/>
</svg>
