<svg width="20" height="30" viewBox="0 0 20 30" fill="none" xmlns="http://www.w3.org/2000/svg">
<path fill-rule="evenodd" clip-rule="evenodd" d="M19.9898 20.0427C19.9898 25.5418 15.5149 30 9.99491 30C4.47491 30 0 25.5418 0 20.0427C0 15.511 6.78694 4.27392 9.17552 0.459666C9.55932 -0.153222 10.4305 -0.153222 10.8143 0.459666C13.2029 4.27392 19.9898 15.511 19.9898 20.0427ZM8.32876 26.8078C3.25694 25.698 4.1247 20.0797 4.1247 20.0797C4.1247 20.0797 5.50979 23.4713 8.87067 24.5697C12.2315 25.6684 16.2931 24.0572 16.2931 24.0572C16.2931 24.0572 13.4006 27.9175 8.32876 26.8078Z" fill="white"/>
</svg>
