<svg width="50" height="50" viewBox="0 0 50 50" fill="none" xmlns="http://www.w3.org/2000/svg">
<g filter="url(#filter0_d)">
<rect x="10" y="10" width="30" height="30" rx="15" fill="url(#paint0_linear)"/>
</g>
<path fill-rule="evenodd" clip-rule="evenodd" d="M19.9549 30.9366C19.9086 30.893 19.8628 30.8486 19.8175 30.8033C17.4272 28.413 17.4272 24.5375 19.8175 22.1472C22.2078 19.7568 29.8243 19.5969 29.8243 19.5969C29.8243 19.5969 30.864 28.413 28.4737 30.8033C26.3507 32.9262 23.0564 33.1637 20.6714 31.5158L22.5931 29.1574L25.6652 28.4942L23.1575 28.2435L24.7512 26.6208L26.5653 26.2234L25.1308 25.7985L26.5653 23.2108L24.5249 25.4994L23.7369 24.3876L24.0143 26.2234L22.5931 27.8255L21.9343 25.7985L21.9343 28.4942L19.9549 30.9366Z" fill="white"/>
<defs>
<filter id="filter0_d" x="0" y="0" width="50" height="50" filterUnits="userSpaceOnUse" color-interpolation-filters="sRGB">
<feFlood flood-opacity="0" result="BackgroundImageFix"/>
<feColorMatrix in="SourceAlpha" type="matrix" values="0 0 0 0 0 0 0 0 0 0 0 0 0 0 0 0 0 0 127 0"/>
<feOffset/>
<feGaussianBlur stdDeviation="5"/>
<feColorMatrix type="matrix" values="0 0 0 0 0.392157 0 0 0 0 0.72549 0 0 0 0 0.329412 0 0 0 0.7 0"/>
<feBlend mode="normal" in2="BackgroundImageFix" result="effect1_dropShadow"/>
<feBlend mode="normal" in="SourceGraphic" in2="effect1_dropShadow" result="shape"/>
</filter>
<linearGradient id="paint0_linear" x1="10" y1="10" x2="10" y2="40" gradientUnits="userSpaceOnUse">
<stop stop-color="#5FBC51"/>
<stop offset="1" stop-color="#5AC178"/>
</linearGradient>
</defs>
</svg>
