<svg width="25" height="28" viewBox="0 0 25 28" fill="none" xmlns="http://www.w3.org/2000/svg">
<path fill-rule="evenodd" clip-rule="evenodd" d="M3.75469 2.6446C4.07794 1.35454 5.23369 0.400002 6.60981 0.400002C7.64648 0.400002 8.55802 0.94162 9.08276 1.76026C9.16375 1.75342 9.24563 1.75 9.3284 1.75C9.5194 1.75 9.70612 1.76836 9.88715 1.80346C10.4249 1.21702 11.1935 0.850002 12.047 0.850002C13.2595 0.850002 14.301 1.59124 14.7526 2.65H14.7654C14.9749 2.65 15.1793 2.67214 15.3763 2.71408C15.8478 2.38972 16.4174 2.2 17.031 2.2C18.3041 2.2 19.3884 3.01684 19.7996 4.16056C20.0228 4.23796 20.2338 4.34164 20.429 4.46818C20.8868 4.1719 21.431 4 22.015 4C23.6414 4 24.96 5.33344 24.96 6.9781V15.925V16.0701C24.96 16.1248 24.9586 16.1793 24.9556 16.2335C24.7781 22.4284 19.2695 27.4 12.5 27.4C5.61853 27.4 0.0400085 22.2624 0.0400085 15.925C0.0400085 12.8659 1.33976 10.0863 3.4585 8.0293C3.45316 11.0117 3.503 14.0948 3.73262 14.0418C4.34761 13.9002 3.86719 4.66294 3.75469 2.6446Z" fill="black"/>
</svg>
