<svg width="20" height="28" viewBox="0 0 20 28" fill="none" xmlns="http://www.w3.org/2000/svg">
<path fill-rule="evenodd" clip-rule="evenodd" d="M14.9242 20.992C15.2499 19.7874 14.6177 17.3108 14.6177 17.3108C14.6177 17.3108 14.159 19.3283 13.4422 20.074C12.8309 20.7101 12.0817 21.1513 11.0075 21.2672C11.8857 20.8358 12.4899 19.9361 12.4899 18.8963C12.4899 17.4368 11.2996 16.2535 9.83125 16.2535C8.36293 16.2535 7.17264 17.4368 7.17264 18.8963C7.17264 19.295 7.26146 19.673 7.42042 20.0119C6.50211 19.2721 6.35758 18.0859 6.35758 18.0859C6.35758 18.0859 5.33212 22.3913 8.15787 24.4167C10.9834 26.442 16.5187 24.7011 16.5187 24.7011C16.5187 24.7011 8.59735 30.3374 2.72762 24.203C-2.32864 18.9188 1.40793 11.9618 1.40793 11.9618C1.40793 11.9618 1.24649 12.6072 1.24649 13.3564C1.24649 14.1056 1.64823 14.6756 1.64823 14.6756C1.64823 14.6756 2.84635 12.1216 3.77889 11.083C4.66142 10.1 5.76769 9.3028 6.72319 8.6143C7.45869 8.0842 8.105 7.61836 8.49091 7.18204C10.6168 4.77832 9.31327 0.400002 9.31327 0.400002C9.31327 0.400002 11.7097 2.53624 12.3786 5.29546C12.6337 6.34702 12.4696 7.54366 12.3229 8.61376C12.0847 10.3509 11.8923 11.7546 13.6127 11.6635C16.3929 11.5164 13.977 7.18204 13.977 7.18204C13.977 7.18204 20.2834 10.5338 19.8122 16.3961C19.3411 22.2583 12.919 23.591 12.919 23.591C12.919 23.591 14.5984 22.1967 14.9242 20.992Z" fill="black"/>
</svg>
