<svg width="22" height="24" viewBox="0 0 22 24" fill="none" xmlns="http://www.w3.org/2000/svg">
<path fill-rule="evenodd" clip-rule="evenodd" d="M3.51973 20.6859C3.43732 20.6074 3.35579 20.5275 3.27516 20.4459C-0.979577 16.1434 -0.979577 9.16749 3.27516 4.86495C7.52989 0.562232 21.0873 0.274414 21.0873 0.274414C21.0873 0.274414 22.9379 16.1434 18.6832 20.4459C14.9043 24.2672 9.0404 24.6947 4.7951 21.7284L8.21573 17.4833L13.6841 16.2896L9.22036 15.8383L12.0571 12.9174L15.2862 12.2021L12.7328 11.4373L15.2862 6.77943L11.6543 10.8989L10.2517 8.89767L10.7455 12.2021L8.21573 15.0859L7.04306 11.4373V16.2896L3.51973 20.6859Z" fill="black"/>
</svg>
