<svg width="27" height="21" viewBox="0 0 27 21" fill="none" xmlns="http://www.w3.org/2000/svg">
<path fill-rule="evenodd" clip-rule="evenodd" d="M6.14555 20.3238C6.03715 20.3238 5.96132 20.2165 5.99746 20.1143L12.7413 1.05852C12.7921 0.915587 12.9272 0.82 13.0788 0.82H19.9471C20.0993 0.82 20.235 0.916296 20.2852 1.06012L26.8356 19.8478C26.9167 20.0807 26.7439 20.3238 26.4975 20.3238H6.14555ZM0.502062 20.4C0.25215 20.4 0.0791338 20.1504 0.16671 19.9164L5.04106 6.90351C5.0934 6.76378 5.22689 6.67104 5.37624 6.67104H9.10142C9.34955 6.67104 9.52257 6.91757 9.43802 7.15093L4.72476 20.164C4.67349 20.3057 4.53893 20.4 4.38816 20.4H0.502062Z" fill="black"/>
</svg>
