<svg width="31" height="27" viewBox="0 0 31 27" fill="none" xmlns="http://www.w3.org/2000/svg">
<path fill-rule="evenodd" clip-rule="evenodd" d="M23.4754 0.74754L23.5692 8.89585L16.3823 12.3076L16.2936 4.61406L23.4754 0.74754Z" fill="black"/>
<path fill-rule="evenodd" clip-rule="evenodd" d="M30.6797 13.5872L23.5652 17.6114L16.4466 13.5808L23.5616 9.885L30.6797 13.5872Z" fill="black"/>
<path fill-rule="evenodd" clip-rule="evenodd" d="M15.1812 13.5872L8.06649 17.6114L0.947845 13.5808L8.06289 9.885L15.1812 13.5872Z" fill="black"/>
<path fill-rule="evenodd" clip-rule="evenodd" d="M7.98657 0.71426L15.3709 4.33069L15.1823 12.212L8.20995 8.79724L7.98657 0.71426Z" fill="black"/>
<path fill-rule="evenodd" clip-rule="evenodd" d="M23.6763 26.337L16.292 22.7204L16.4808 14.8391L23.4529 18.2538L23.6763 26.337Z" fill="black"/>
<path fill-rule="evenodd" clip-rule="evenodd" d="M8.24164 26.4103L8.14786 18.262L15.3347 14.8503L15.4233 22.5438L8.24164 26.4103Z" fill="black"/>
</svg>
