<svg width="89" height="89" viewBox="0 0 89 89" fill="none" xmlns="http://www.w3.org/2000/svg">
<path fill-rule="evenodd" clip-rule="evenodd" d="M54.2446 52.7345C54.2446 52.7345 51.1024 55.2548 44.8494 54.2117C40.1054 53.4205 37.5751 48.191 37.5751 45.38C37.5751 38.7154 42.5078 37.1986 45.8426 37.1986C49.1775 37.1986 51.353 40.45 51.353 42.9672C51.353 45.4845 49.5725 47.6864 46.8017 47.6864C44.0311 47.6864 43.2104 45.7412 43.2104 43.9528C43.2104 42.1645 44.6573 41.5345 45.9769 41.5345C47.2964 41.5345 47.7483 42.6611 47.7483 43.6292C47.7483 44.5975 46.997 44.9443 46.3704 44.9443C45.7439 44.9443 45.6817 44.6282 45.442 44.296C45.2022 43.9637 45.748 42.7063 44.8494 42.7063C43.9509 42.7063 43.7834 44.1518 43.7834 44.1518C43.7834 44.1518 44.1111 46.9423 46.8017 46.8943C49.4925 46.846 50.7692 44.7658 50.3982 42.7063C50.0273 40.6467 48.0283 38.4581 44.5205 38.9003C41.0124 39.3426 39.5801 42.8871 40.2114 46.675C40.8428 50.4628 45.3806 52.6576 48.9486 51.868C52.5164 51.0783 56.07 48.4952 56.07 41.9462C56.07 35.3973 50.3982 31.4608 43.6349 32.1096C36.8718 32.7584 32.6735 38.6712 32.9421 45.7755C33.2109 52.8799 39.9521 56.7492 45.6525 56.9486C51.353 57.1481 54.8475 53.8482 54.8475 53.8482C54.8475 53.8482 55.6334 53.1474 55.3252 52.6001C55.0171 52.0529 54.2446 52.7345 54.2446 52.7345Z" fill="black"/>
</svg>
