<svg width="27" height="24" viewBox="0 0 27 24" fill="none" xmlns="http://www.w3.org/2000/svg">
<path fill-rule="evenodd" clip-rule="evenodd" d="M0.240959 12.7316C0.119741 12.5246 0.119743 12.2684 0.240783 12.0614L6.62831 1.14805C6.74722 0.944955 6.96509 0.82 7.20058 0.82H19.8674C20.104 0.82 20.3227 0.946023 20.4413 1.1509L26.7587 12.0641C26.8776 12.2697 26.8776 12.5233 26.7585 12.7287L20.4413 23.6295C20.3227 23.834 20.1042 23.96 19.8676 23.96H7.20023C6.96491 23.96 6.74722 23.8352 6.62814 23.6321L0.240959 12.7316ZM19.73 12.39C19.73 15.8307 16.9407 18.62 13.5 18.62C10.0593 18.62 7.27 15.8307 7.27 12.39C7.27 8.94926 10.0593 6.16 13.5 6.16C16.9407 6.16 19.73 8.94926 19.73 12.39Z" fill="black"/>
</svg>
