<svg width="19" height="27" viewBox="0 0 19 27" fill="none" xmlns="http://www.w3.org/2000/svg">
<path fill-rule="evenodd" clip-rule="evenodd" d="M18.4 17.8735C18.4 22.7702 14.4153 26.74 9.50001 26.74C4.58471 26.74 0.600006 22.7702 0.600006 17.8735C0.600006 13.8382 6.64346 3.83211 8.77038 0.435694C9.11214 -0.110055 9.88787 -0.110055 10.2296 0.435694C12.3566 3.83211 18.4 13.8382 18.4 17.8735ZM8.01638 23.8975C3.50016 22.9093 4.27286 17.9064 4.27286 17.9064C4.27286 17.9064 5.50622 20.9265 8.49893 21.9046C11.4916 22.8829 15.1083 21.4482 15.1083 21.4482C15.1083 21.4482 12.5326 24.8856 8.01638 23.8975Z" fill="black"/>
</svg>
