<svg width="197" height="197" viewBox="0 0 197 197" fill="none" xmlns="http://www.w3.org/2000/svg">
<g filter="url(#filter0_d)">
<path d="M156.92 98.0748C156.92 65.5757 130.574 39.2299 98.0748 39.2299C65.5757 39.2299 39.2299 65.5757 39.2299 98.0748C39.2299 130.574 65.5757 156.92 98.0748 156.92C130.574 156.92 156.92 130.574 156.92 98.0748Z" fill="url(#paint0_linear)"/>
</g>
<path d="M111.293 67.7309C112.183 69.6443 112.647 71.7282 112.653 73.8385C112.653 77.7048 111.117 81.4128 108.383 84.1467C105.649 86.8806 101.941 88.4166 98.0751 88.4167C96.1606 88.4167 94.2649 88.0396 92.4962 87.307C90.7275 86.5744 89.1204 85.5006 87.7667 84.1469C86.413 82.7932 85.3392 81.1861 84.6065 79.4174C83.8739 77.6486 83.4969 75.7529 83.4969 73.8385C83.5021 71.744 83.9586 69.6753 84.8353 67.7731C78.682 70.1873 73.4304 74.2305 69.7357 79.3983C66.0409 84.5661 64.0666 90.6296 64.0591 96.8326C64.059 100.981 64.9389 105.088 66.6483 108.92C68.3578 112.752 70.8634 116.234 74.022 119.167C77.1807 122.101 80.9306 124.427 85.0577 126.014C89.1847 127.602 93.608 128.419 98.0751 128.419C102.542 128.419 106.965 127.602 111.092 126.014C115.219 124.427 118.969 122.1 122.128 119.167C125.286 116.234 127.792 112.752 129.501 108.92C131.211 105.088 132.091 100.98 132.091 96.8326C132.09 90.6202 130.117 84.5459 126.418 79.3696C122.718 74.1933 117.457 70.1449 111.293 67.7309V67.7309Z" fill="white"/>
<defs>
<filter id="filter0_d" x="29.2299" y="29.2299" width="137.69" height="137.69" filterUnits="userSpaceOnUse" color-interpolation-filters="sRGB">
<feFlood flood-opacity="0" result="BackgroundImageFix"/>
<feColorMatrix in="SourceAlpha" type="matrix" values="0 0 0 0 0 0 0 0 0 0 0 0 0 0 0 0 0 0 127 0"/>
<feOffset/>
<feGaussianBlur stdDeviation="5"/>
<feColorMatrix type="matrix" values="0 0 0 0 0.364706 0 0 0 0 0.34902 0 0 0 0 0.415686 0 0 0 0.7 0"/>
<feBlend mode="normal" in2="BackgroundImageFix" result="effect1_dropShadow"/>
<feBlend mode="normal" in="SourceGraphic" in2="effect1_dropShadow" result="shape"/>
</filter>
<linearGradient id="paint0_linear" x1="39.9886" y1="39.2299" x2="39.9886" y2="155.402" gradientUnits="userSpaceOnUse">
<stop stop-color="#595761"/>
<stop offset="1" stop-color="#6E7587"/>
</linearGradient>
</defs>
</svg>
