<svg width="25" height="30" viewBox="0 0 25 30" fill="none" xmlns="http://www.w3.org/2000/svg">
<path fill-rule="evenodd" clip-rule="evenodd" d="M16.6913 1.17762C17.1143 0.567065 17.9466 0.418566 18.5506 0.846246C19.1543 1.27375 19.3012 2.11542 18.8782 2.72617L16.7147 5.85079C18.12 6.30475 19.0774 6.79453 19.0774 6.79453C19.0774 6.79453 16.7373 10.8652 12.768 10.8652C8.79865 10.8652 5.97823 7.07119 5.97823 7.07119C5.97823 7.07119 6.97824 6.42571 8.4608 5.87221L6.10497 3.03325C5.63114 2.46211 5.70483 1.6107 6.26962 1.13154C6.83424 0.652204 7.67618 0.726723 8.15019 1.29786L11.1634 4.92936C11.2234 5.00154 11.2744 5.07805 11.3168 5.15779C11.6712 5.11603 12.0326 5.09262 12.3973 5.09262C12.9087 5.09262 13.4197 5.13223 13.9183 5.19937C13.9434 5.15221 13.9713 5.10595 14.0025 5.06095L16.6913 1.17762ZM6.79615 11.0578C5.73687 10.2928 4.13416 8.29626 4.13416 8.29626C4.13416 8.29626 0.039978 11.5769 0.039978 18.5336C0.039978 25.49 7.11797 29.6768 7.11797 29.6768C7.11797 29.6768 10.4998 26.2234 11.33 21.8454C12.1602 17.4674 10.102 12.6062 10.102 12.6062C10.102 12.6062 7.85542 11.8228 6.79615 11.0578ZM18.2038 11.0578C19.2631 10.2928 20.8658 8.29626 20.8658 8.29626C20.8658 8.29626 24.96 11.5769 24.96 18.5336C24.96 25.49 17.882 29.6768 17.882 29.6768C17.882 29.6768 14.5002 26.2234 13.67 21.8454C12.8398 17.4674 14.898 12.6062 14.898 12.6062C14.898 12.6062 17.1445 11.8228 18.2038 11.0578Z" fill="black"/>
</svg>
