<svg width="31" height="28" viewBox="0 0 31 28" fill="none" xmlns="http://www.w3.org/2000/svg">
<path d="M21.4316 0C21.8355 0.87793 22.046 1.83409 22.0487 2.80236C22.0487 4.57635 21.3518 6.27769 20.1113 7.53209C18.8708 8.7865 17.1883 9.49126 15.4342 9.49131C14.5655 9.49131 13.7054 9.31828 12.9029 8.98214C12.1004 8.646 11.3712 8.15331 10.7569 7.53219C10.1427 6.91106 9.65551 6.17368 9.32306 5.36214C8.99065 4.55056 8.81959 3.68075 8.81959 2.80236C8.82195 1.84134 9.02908 0.892152 9.42687 0.0193619C6.63491 1.12707 4.25208 2.98222 2.57567 5.35338C0.899213 7.72453 0.00340301 10.5067 3.86705e-09 13.3528C-4.53695e-05 15.2562 0.399197 17.1406 1.17481 18.8989C1.95047 20.6571 3.08735 22.2548 4.52051 23.6005C5.95372 24.9467 7.65518 26.014 9.52778 26.7422C11.4003 27.4708 13.4073 27.8457 15.4342 27.8457C17.461 27.8457 19.4679 27.4708 21.3404 26.7422C23.213 26.014 24.9145 24.9463 26.3478 23.6005C27.7807 22.2548 28.9178 20.6571 29.6932 18.8989C30.4691 17.1406 30.8684 15.2558 30.8684 13.3528C30.8679 10.5023 29.9727 7.71526 28.2944 5.34021C26.6155 2.96515 24.2284 1.10762 21.4316 0Z" fill="black"/>
</svg>
