<svg width="25" height="30" viewBox="0 0 25 30" fill="none" xmlns="http://www.w3.org/2000/svg">
<path fill-rule="evenodd" clip-rule="evenodd" d="M13.8891 14.937C14.0821 14.818 14.246 14.5685 14.3781 14.2913C16.1161 15.0097 17.3373 16.7071 17.3373 18.6866C17.3373 21.3164 15.1819 23.4481 12.523 23.4481C11.4316 23.4481 10.4249 23.0888 9.61746 22.4835C9.3526 22.3566 9.13454 22.2347 8.95619 22.135C8.67958 21.9804 8.49819 21.8791 8.38463 21.8949C8.05266 21.9412 8.14896 22.25 8.23653 22.5307C8.29616 22.7213 8.35152 22.8989 8.26573 22.9722C8.17584 23.0489 7.88516 22.7684 7.54536 22.4408C7.08274 21.9948 6.52934 21.4613 6.26839 21.6217C6.06209 21.7484 6.26251 22.092 6.50762 22.5128L6.52578 22.544C6.62937 22.722 6.74935 22.9031 6.85899 23.0683C7.08167 23.4042 7.26092 23.6747 7.1712 23.7206C7.0628 23.7759 6.30702 23.2602 5.67013 22.544C5.42431 22.2677 5.18633 21.968 4.96507 21.6897C4.48073 21.0802 4.07721 20.5726 3.85062 20.6327C3.57828 20.7051 3.7844 21.2734 4.08718 21.8204C4.22887 22.0762 4.39547 22.3366 4.53965 22.562C4.76393 22.9128 4.93428 23.1788 4.87251 23.2116C4.78921 23.2557 4.05603 22.5326 3.55798 21.6217C3.26215 21.0804 3.01384 20.4824 2.8127 19.9982C2.59465 19.4732 2.43231 19.082 2.32533 19.0426C1.95367 18.9058 1.95367 19.6721 2.10283 20.778C2.12223 20.9222 2.15125 21.0734 2.18685 21.2275C3.63221 25.9566 8.07224 29.4 13.3254 29.4C19.751 29.4 24.96 24.2482 24.96 17.893C24.96 11.8444 20.2414 6.88578 14.2462 6.42156C14.2536 6.13662 14.4009 5.5716 14.4009 5.5716C14.4009 5.5716 15.4592 2.98194 15.5151 2.42862C15.5189 2.3919 15.5231 2.35212 15.5279 2.30946C15.5938 1.71168 15.7165 0.599998 14.7707 0.599998C14.2658 0.599998 14.0308 0.979977 13.7622 1.4145C13.6591 1.58136 13.5509 1.75614 13.4206 1.92066C12.4824 3.1056 10.9046 4.5852 10.01 5.3736C8.11906 7.03968 6.26394 8.40912 5.18188 9.20778C4.68971 9.57102 4.35756 9.81618 4.25485 9.91752C3.4802 10.6811 0.702683 15.7474 0.702683 15.7474C0.702683 15.7474 -0.195502 17.3728 0.123652 17.7023C0.442984 18.0321 1.21283 17.9565 1.21283 17.9565C1.21283 17.9565 11.5559 15.5571 12.4818 15.3677C12.7312 15.3168 12.9071 15.2875 13.0422 15.265C13.409 15.2036 13.4749 15.1926 13.8891 14.937ZM6.57633 11.8536C6.02115 12.3873 5.10035 13.661 5.10035 13.661C5.10035 13.661 6.81164 13.7677 7.75415 12.8618C8.69649 11.9558 8.48057 10.4118 8.48057 10.4118C8.48057 10.4118 7.13151 11.3199 6.57633 11.8536Z" fill="black"/>
</svg>
