<svg width="27" height="28" viewBox="0 0 27 28" fill="none" xmlns="http://www.w3.org/2000/svg">
<path fill-rule="evenodd" clip-rule="evenodd" d="M5.97077 22.0104L9.66374 20.9275L13.1212 27.3202C13.285 27.6229 13.715 27.6229 13.8788 27.3202L17.3363 20.9275L21.0292 22.0104C21.3571 22.1065 21.6604 21.7981 21.5636 21.4671L20.4965 17.8201L26.6254 14.4304C26.9248 14.2648 26.9248 13.8299 26.6254 13.6643L20.4404 10.2436L21.5636 6.40508C21.6604 6.07406 21.3571 5.76572 21.0292 5.86184L17.2323 6.97514L13.8788 0.774502C13.715 0.471742 13.285 0.471742 13.1212 0.774502L9.76769 6.97514L5.97077 5.86184C5.6429 5.76572 5.33959 6.07406 5.43642 6.40508L6.5596 10.2436L0.374632 13.6643C0.0752364 13.8299 0.0752364 14.2648 0.374632 14.4304L6.50353 17.8201L5.43642 21.4671C5.33959 21.7981 5.6429 22.1065 5.97077 22.0104ZM9.34352 14.4671L11.809 15.8306L13.1573 18.3238C13.3211 18.6265 13.7513 18.6265 13.9151 18.3238L15.2634 15.8306L17.7289 14.4671C18.0283 14.3015 18.0283 13.8664 17.7289 13.7008L15.2634 12.3373L13.9151 9.84416C13.7513 9.54122 13.3211 9.54122 13.1573 9.84416L11.809 12.3373L9.34352 13.7008C9.04395 13.8664 9.04395 14.3015 9.34352 14.4671Z" fill="black"/>
</svg>
