<svg width="25" height="26" viewBox="0 0 25 26" fill="none" xmlns="http://www.w3.org/2000/svg">
<path fill-rule="evenodd" clip-rule="evenodd" d="M17.9975 25.5127C15.7498 25.6292 13.1764 25.6292 12.3017 25.5127C5.48004 24.6051 0.0400085 19.5615 0.0400085 12.744C0.0400085 5.92654 5.61853 0.400002 12.5 0.400002C19.3815 0.400002 24.96 5.92654 24.96 12.744C24.96 15.9147 23.7533 18.8063 21.7701 20.9925C21.2314 21.5862 21.9705 22.0025 22.7211 22.4255C23.4575 22.8406 24.2053 23.262 23.7706 23.8632C23.2918 24.5258 20.696 25.373 17.9975 25.5127ZM10.7478 11.2011C10.7478 12.2663 9.87611 13.1298 8.80099 13.1298C7.72569 13.1298 6.85403 12.2663 6.85403 11.2011C6.85403 10.4867 7.24616 9.86296 7.82875 9.5296C7.86222 10.4584 8.61747 11.2011 9.54414 11.2011H10.7478ZM13.8628 11.2011C13.8628 12.2663 14.7344 13.1298 15.8097 13.1298C16.8849 13.1298 17.7565 12.2663 17.7565 11.2011C17.7565 10.4867 17.3646 9.86296 16.782 9.5296C16.7485 10.4584 15.9933 11.2011 15.0666 11.2011H13.8628Z" fill="black"/>
</svg>
