<svg width="27" height="27" viewBox="0 0 27 27" fill="none" xmlns="http://www.w3.org/2000/svg">
<path fill-rule="evenodd" clip-rule="evenodd" d="M22.3502 20.5577C25.0463 18.4018 26.74 15.2869 26.74 11.8229C26.74 5.31539 20.7629 0.0400009 13.39 0.0400009C6.01707 0.0400009 0.0400085 5.31539 0.0400085 11.8229C0.0400085 15.162 1.61353 18.1764 4.14184 20.3206C3.98858 20.8496 3.90457 21.4251 3.90457 22.0267C3.90457 24.6298 5.47737 26.74 7.41757 26.74C8.67835 26.74 9.78408 25.8491 10.4039 24.5109C11.0237 25.8491 12.1292 26.74 13.39 26.74C14.5392 26.74 15.5597 25.9997 16.2005 24.8552C16.8414 25.9997 17.8619 26.74 19.0111 26.74C20.9513 26.74 22.5243 24.6298 22.5243 22.0267C22.5243 21.5139 22.4632 21.0202 22.3502 20.5577ZM21.1189 12.0566C21.1189 15.3605 17.58 18.0388 13.2143 18.0388C8.8487 18.0388 5.3097 15.3605 5.3097 12.0566C5.3097 8.75275 8.8487 6.07456 13.2143 6.07456C17.58 6.07456 21.1189 8.75275 21.1189 12.0566Z" fill="black"/>
</svg>
