<svg width="26" height="21" viewBox="0 0 26 21" fill="none" xmlns="http://www.w3.org/2000/svg">
<path fill-rule="evenodd" clip-rule="evenodd" d="M19.9365 9.97313C19.8836 9.90193 19.8623 9.81275 19.8774 9.72571L21.4132 0.870207C21.4402 0.714101 21.579 0.600002 21.7392 0.600002C21.8826 0.600002 22.0112 0.692028 22.0544 0.82713L25.5312 11.7134C25.5726 11.8428 25.5282 11.9842 25.42 12.0676L23.1898 13.7896C23.0438 13.9023 22.8323 13.8735 22.7225 13.7257L19.9365 9.97313ZM0.400002 15.7681C0.400002 15.9087 0.491442 16.0333 0.626622 16.0771L5.74888 17.7332C5.84644 17.7649 5.95336 17.7494 6.03796 17.6917L18.0724 9.47579C18.1473 9.42471 18.1973 9.34514 18.2108 9.25614L19.4525 1.01777C19.482 0.821255 19.3281 0.644682 19.1272 0.644682H8.77234C8.67442 0.644682 8.58172 0.687756 8.51926 0.762338L0.475601 10.3578C0.426821 10.4162 0.400002 10.4895 0.400002 10.5653V15.7681ZM8.18878 18.2345L14.0359 20.1287C14.1356 20.161 14.2447 20.1442 14.33 20.0839L21.0912 15.2878C21.2355 15.1855 21.2715 14.9883 21.1724 14.8423L18.8468 11.4201C18.7449 11.2702 18.539 11.2311 18.3883 11.333L8.18878 18.2345Z" fill="black"/>
</svg>
