<svg width="26" height="30" viewBox="0 0 26 30" fill="none" xmlns="http://www.w3.org/2000/svg">
<path fill-rule="evenodd" clip-rule="evenodd" d="M17.1812 0.593963C17.6176 -0.03602 18.4764 -0.189244 19.0996 0.252045C19.7225 0.693152 19.8741 1.5616 19.4377 2.19179L17.2053 5.41584C18.6553 5.88424 19.6432 6.38961 19.6432 6.38961C19.6432 6.38961 17.2286 10.5898 13.133 10.5898C9.03738 10.5898 6.12721 6.67507 6.12721 6.67507C6.12721 6.67507 7.15904 6.00905 8.68878 5.43794L6.25798 2.50864C5.76908 1.91933 5.84511 1.04082 6.42787 0.546417C7.01046 0.0518281 7.87919 0.128718 8.36828 0.718029L11.4774 4.46509C11.5393 4.53956 11.5919 4.61851 11.6357 4.70078C12.0013 4.6577 12.3742 4.63354 12.7505 4.63354C13.2782 4.63354 13.8055 4.67441 14.3199 4.74369C14.3458 4.69503 14.3746 4.64729 14.4068 4.60086L17.1812 0.593963ZM6.97116 10.7885C5.87817 9.99919 4.22446 7.93912 4.22446 7.93912C4.22446 7.93912 0 11.3242 0 18.5022C0 25.68 7.30322 30 7.30322 30C7.30322 30 10.7927 26.4367 11.6493 21.9194C12.5059 17.4021 10.3822 12.3862 10.3822 12.3862C10.3822 12.3862 8.06413 11.5779 6.97116 10.7885ZM18.7418 10.7885C19.8348 9.99919 21.4885 7.93912 21.4885 7.93912C21.4885 7.93912 25.713 11.3242 25.713 18.5022C25.713 25.68 18.4098 30 18.4098 30C18.4098 30 14.9204 26.4367 14.0637 21.9194C13.2071 17.4021 15.3308 12.3862 15.3308 12.3862C15.3308 12.3862 17.6488 11.5779 18.7418 10.7885Z" fill="white"/>
</svg>
